# Blender 4.2.0
# www.blender.org
o Not_rounded
v 0.000000 0.000000 0.029257
v -0.000000 1.000000 -0.000000
v 0.000000 0.000000 -0.029257
v -0.000000 0.927355 0.008511
v -0.000000 0.841899 0.015001
v -0.000000 0.739326 0.019594
v 0.000000 0.599013 0.023474
v 0.000000 0.425629 0.026236
v 0.000000 0.221718 0.027997
v 0.000000 0.221718 -0.027997
v 0.000000 0.425629 -0.026236
v 0.000000 0.599013 -0.023474
v -0.000000 0.739326 -0.019594
v -0.000000 0.841899 -0.015001
v -0.000000 0.927355 -0.008511
vn 1.0000 -0.0000 -0.0000
vt 0.008082 0.000799
vt 0.972104 0.222161
vt 0.029308 0.222161
vt 0.500706 0.999193
vt 0.357396 0.926665
vt 0.644017 0.926665
vt 0.753284 0.841346
vt 0.170787 0.738939
vt 0.248128 0.841346
vt 0.895950 0.598850
vt 0.830627 0.738938
vt 0.058960 0.425745
vt 0.105462 0.598851
vt 0.942452 0.425744
vt 0.993330 0.000798
s 0
f 1/1/1 10/2/1 9/3/1
f 2/4/1 4/5/1 15/6/1
f 4/5/1 14/7/1 15/6/1
f 6/8/1 14/7/1 5/9/1
f 6/8/1 12/10/1 13/11/1
f 8/12/1 12/10/1 7/13/1
f 9/3/1 11/14/1 8/12/1
f 1/1/1 3/15/1 10/2/1
f 4/5/1 5/9/1 14/7/1
f 6/8/1 13/11/1 14/7/1
f 6/8/1 7/13/1 12/10/1
f 8/12/1 11/14/1 12/10/1
f 9/3/1 10/2/1 11/14/1
