# Blender 4.2.0
# www.blender.org
o Cube.001
v -0.998789 -0.684480 0.878698
v -0.996096 -0.914740 0.370248
v -0.998395 -0.885549 -0.157800
v -0.865189 -1.000887 0.819420
v -0.879169 -0.497193 0.996506
v -0.923028 -0.856457 0.990011
v -0.860796 -0.994340 0.482340
v -0.828194 -0.995204 0.035507
v -0.801345 -0.992327 -0.211677
v -0.541976 -0.998242 0.860878
v -0.545244 -0.925593 1.000518
v -0.279697 -0.995240 0.934541
v 0.035415 -0.889523 0.991233
v -0.991377 0.226229 0.871346
v -0.999407 0.491040 0.904221
v -1.001577 0.837220 0.840340
v -0.876281 0.992611 0.788707
v -0.977723 0.987104 0.467954
v -0.998916 0.852450 0.143241
v -0.932216 0.998722 0.132567
v -0.901064 0.339664 0.999121
v -0.847192 0.947231 0.902520
v -0.849610 0.482151 0.999121
v -0.562615 0.992455 0.850848
v -0.553925 0.891959 0.996866
v -0.255187 0.910330 0.999298
v -0.221341 0.998492 0.927161
v -0.998093 -0.875984 -0.514358
v -1.000853 -0.825883 -0.841582
v -0.997075 -0.561618 -0.818664
v -0.999625 0.139906 -0.928179
v -0.914876 -0.378033 -1.001836
v -0.597784 -0.887850 -0.999422
v 0.159323 -0.984542 -0.907048
v -0.842613 -1.001895 -0.723672
v -0.910865 -0.745150 -0.996015
v -0.503247 -0.999809 -0.932669
v -0.150541 -0.907971 -0.991341
v -0.994600 0.893932 -0.735830
v -0.939405 0.997474 -0.656982
v -0.999059 0.781133 -0.880891
v -0.923661 0.298549 -0.999334
v -0.857055 0.988745 -0.868418
v -0.852594 0.860164 -0.978305
v -0.492265 0.993520 -0.857549
v -0.499785 0.893333 -0.994450
v -0.191654 0.986894 -0.983233
v 0.170433 0.859922 -0.995166
v 0.335995 -0.996306 0.914995
v 0.609145 -0.890502 0.997837
v 0.791934 -0.998481 0.815909
v 0.806499 -0.879449 0.995742
v 0.907313 -0.974711 0.859384
v 0.932158 -0.998647 0.497710
v 0.922005 -0.726833 1.002049
v 0.926584 -0.104076 0.996970
v 0.911672 -0.985371 0.218646
v 0.883370 -1.000102 -0.250460
v 0.998910 -0.889016 0.812715
v 0.999995 -0.748928 0.902493
v 1.003947 -0.962274 0.401584
v 0.991377 -0.898380 0.107027
v -0.026896 0.994373 0.916045
v 0.477181 0.935472 0.941663
v 0.367249 0.844229 0.996755
v 0.618853 0.998961 0.691596
v 0.827415 0.894679 0.994917
v 0.919716 0.822850 0.998339
v 0.917862 0.965673 -0.056967
v 0.998431 0.424565 0.814413
v 0.997842 0.816190 0.854580
v 0.904007 0.946147 0.779462
v 1.002362 0.926172 0.689841
v 0.997958 0.918423 0.416584
v 1.000242 0.875755 -0.162087
v 0.087229 -0.777748 -0.998148
v 0.930211 -0.999756 -0.721802
v 0.743891 -0.996471 -0.907211
v 0.799326 -0.791487 -0.999450
v 0.847066 -0.113039 -0.995134
v 0.998032 -0.857387 -0.335362
v 0.998711 -0.905922 -0.716912
v 0.999831 -0.653404 -0.903482
v 0.996898 -0.152575 -0.839378
v 0.901020 -0.651668 -0.999362
v 0.207164 0.999483 -0.847571
v 0.907103 0.390877 -0.998657
v 0.739529 0.986103 -0.880870
v 0.749483 0.908101 -0.998626
v 0.910393 0.965711 -0.673195
v 0.880926 0.800322 -0.997020
v 0.997467 0.902967 -0.651020
v 0.997629 0.771840 -0.877681
v 1.002420 0.302471 -0.946745
vn -0.7611 0.0813 0.6436
vn -0.7291 0.0237 0.6839
vn -0.7471 0.0608 0.6619
vn -0.7898 -0.0427 0.6119
vn -1.0000 -0.0005 0.0031
vn -1.0000 -0.0028 0.0080
vn -0.9999 0.0149 -0.0024
vn -0.8981 -0.4153 0.1449
vn -0.9053 -0.3996 0.1443
vn -0.9364 -0.3215 0.1406
vn -0.9999 0.0130 0.0044
vn -1.0000 -0.0062 -0.0010
vn -1.0000 0.0018 0.0020
vn 0.0032 -1.0000 -0.0065
vn -0.0078 -1.0000 -0.0037
vn 0.0134 -0.9999 -0.0083
vn 0.0107 -0.9998 -0.0193
vn 0.0235 -0.5462 0.8374
vn 0.0491 -0.5818 0.8119
vn 0.0460 -0.5751 0.8168
vn -0.7838 -0.0709 0.6169
vn -0.7675 -0.1018 0.6329
vn -0.9997 -0.0214 -0.0108
vn -0.9998 0.0209 -0.0034
vn -0.9877 0.1563 -0.0004
vn -0.9102 0.4116 -0.0467
vn -0.9091 0.4141 -0.0459
vn -0.9074 0.4058 -0.1091
vn -0.5211 0.1629 0.8378
vn -0.5178 0.1870 0.8348
vn -0.4686 0.1790 0.8651
vn -0.6887 0.6571 0.3063
vn -0.6921 0.6572 0.2984
vn -0.6327 0.6500 0.4209
vn -0.0314 0.9993 0.0200
vn -0.0196 0.9997 0.0144
vn -0.0040 1.0000 0.0052
vn 0.0095 0.9999 -0.0124
vn 0.0374 0.9991 -0.0197
vn 0.0054 -0.0023 1.0000
vn -0.0030 -0.0012 1.0000
vn 0.0074 -0.0010 1.0000
vn -0.3616 0.1914 0.9125
vn -0.2663 0.1974 0.9435
vn -0.4857 0.1751 0.8564
vn -0.0631 0.8970 0.4374
vn -0.0435 0.8218 0.5682
vn -0.0590 0.8226 0.5656
vn -0.0760 0.9194 0.3860
vn -0.0621 0.6745 0.7357
vn 0.0110 0.9999 -0.0095
vn -0.0011 -0.0035 1.0000
vn -0.0040 -0.0034 1.0000
vn -0.0421 0.6423 0.7653
vn -0.9999 0.0134 0.0105
vn -1.0000 0.0048 0.0016
vn -0.3606 -0.7221 -0.5904
vn -0.3637 -0.7216 -0.5891
vn -0.3562 -0.7166 -0.5996
vn -0.8887 0.0249 -0.4578
vn -0.8929 -0.0127 -0.4501
vn -0.8869 -0.0600 -0.4581
vn 0.0079 -1.0000 0.0016
vn -0.3442 -0.7052 -0.6199
vn -0.3112 -0.6666 -0.6773
vn -0.0078 -0.5169 -0.8560
vn 0.0380 -0.6375 -0.7695
vn -0.0006 -0.5367 -0.8437
vn 0.0006 -0.0090 -1.0000
vn -0.0003 -0.0085 -1.0000
vn -0.0066 0.0098 -0.9999
vn -0.8898 0.4560 0.0165
vn -0.8877 0.4600 0.0173
vn -1.0000 -0.0008 0.0001
vn -0.9999 0.0115 0.0097
vn -0.7110 0.5432 -0.4466
vn -0.7368 0.5777 -0.3512
vn -0.7228 0.6191 -0.3071
vn -0.5893 0.1046 -0.8011
vn -0.7118 0.0459 -0.7009
vn -0.6075 0.0985 -0.7882
vn 0.0112 0.9999 -0.0084
vn -0.0128 0.0277 -0.9995
vn -0.0498 0.0437 -0.9978
vn -0.0046 1.0000 -0.0035
vn 0.0026 1.0000 -0.0012
vn 0.0042 0.1054 -0.9944
vn -0.0003 0.0138 -0.9999
vn -0.0049 -0.5902 0.8073
vn -0.0049 -1.0000 -0.0069
vn 0.0710 -0.9969 0.0330
vn 0.0135 -0.9997 -0.0179
vn 0.0254 -0.8483 0.5290
vn 0.0120 -0.8427 0.5383
vn 0.0938 -0.8052 0.5856
vn 0.0512 -0.8005 0.5971
vn -0.0059 -0.0075 1.0000
vn 0.0135 -0.0515 0.9986
vn -0.0123 -0.0023 0.9999
vn 0.0034 -0.0003 1.0000
vn 0.7746 -0.6325 -0.0004
vn 0.7021 -0.7091 -0.0655
vn 0.6325 -0.7615 -0.1419
vn 0.8069 0.0053 0.5907
vn 0.8899 0.0297 0.4553
vn 0.7871 -0.0008 0.6168
vn 0.9160 0.0023 0.4012
vn 0.7122 -0.6896 0.1316
vn 0.6913 -0.7114 0.1266
vn 0.4448 -0.8954 -0.0210
vn 1.0000 -0.0000 -0.0039
vn 0.9999 0.0089 -0.0108
vn 0.9904 0.1377 -0.0124
vn 0.0960 0.9504 0.2957
vn 0.0855 0.9531 0.2904
vn 0.0843 0.9559 0.2812
vn 0.0010 0.0028 1.0000
vn -0.0016 0.0129 0.9999
vn 0.7435 0.6687 0.0107
vn 0.7125 0.7012 -0.0277
vn 0.7071 0.7054 -0.0492
vn 0.5937 0.6900 0.4140
vn 0.5605 0.7381 0.3756
vn 0.6029 0.7129 0.3583
vn 0.1849 0.9824 -0.0272
vn 0.1720 0.9846 -0.0307
vn 0.2260 0.9737 0.0283
vn 0.8924 -0.0315 0.4501
vn 1.0000 -0.0034 0.0031
vn 1.0000 0.0004 0.0047
vn 0.9996 -0.0012 0.0266
vn 1.0000 -0.0025 0.0038
vn 0.9998 0.0135 -0.0123
vn 0.0410 0.9992 0.0038
vn 0.0518 0.9986 0.0070
vn 1.0000 -0.0030 0.0030
vn 0.0836 -0.3775 -0.9222
vn 0.0492 -0.3882 -0.9202
vn 0.1647 -0.3490 -0.9225
vn 0.0145 -0.0785 -0.9968
vn -0.0053 -0.9999 0.0133
vn -0.0101 -0.9999 -0.0102
vn -0.0003 -0.0004 -1.0000
vn -0.0095 -0.4082 -0.9129
vn -0.0094 -0.4077 -0.9131
vn 0.0019 0.0037 -1.0000
vn 0.6181 -0.4492 -0.6451
vn 0.6248 -0.4535 -0.6356
vn 0.6193 -0.4541 -0.6405
vn 1.0000 -0.0032 -0.0057
vn 0.8032 -0.5905 0.0794
vn 0.8022 -0.5918 0.0789
vn 0.6348 -0.4551 -0.6244
vn 0.6219 -0.4570 -0.6359
vn 0.7136 -0.0282 -0.7000
vn 0.6941 0.0954 -0.7136
vn 0.7028 0.0912 -0.7055
vn -0.0004 -0.0006 -1.0000
vn -0.0028 1.0000 0.0025
vn -0.0028 -0.0024 -1.0000
vn -0.0043 -0.0201 -0.9998
vn 0.1202 0.9928 -0.0014
vn 0.5850 0.7006 -0.4085
vn 0.5798 0.7009 -0.4153
vn 0.5838 0.6997 -0.4119
vn 0.6072 0.7945 -0.0025
vn 0.5858 0.8104 -0.0071
vn 0.6951 0.0622 -0.7162
vn 0.5490 0.0618 -0.8335
vn 0.7199 0.0488 -0.6924
vn 0.5884 0.6982 -0.4078
vn 0.5922 0.6956 -0.4068
vn 0.6007 0.6922 -0.4000
vn 0.9999 0.0108 -0.0052
vn 1.0000 -0.0038 0.0056
vn 0.7129 -0.0531 -0.6993
vn 0.6871 -0.1747 -0.7053
vn 0.4810 0.0038 -0.8767
vn 0.4353 -0.0581 -0.8984
vn -0.4908 -0.8706 -0.0337
vn -0.4904 -0.8711 -0.0266
vn -0.4925 -0.8700 -0.0233
vn -0.4895 -0.8710 -0.0419
vn -0.4972 -0.8662 -0.0489
vn -0.8454 -0.5133 0.1479
vn -0.1332 -0.8094 0.5719
vn -0.0814 -0.8850 0.4585
vn -0.1033 -0.8648 0.4913
vn -0.0023 -0.0021 1.0000
vn -0.1180 -0.8821 0.4561
vn 0.0034 0.0120 0.9999
vn -0.7233 0.6554 0.2175
vn 0.0042 0.9998 -0.0185
vn 0.0405 0.6455 0.7627
vn -0.7050 -0.7019 -0.1015
vn -0.6594 -0.7508 -0.0382
vn -0.5969 -0.8023 0.0011
vn -0.5042 -0.8633 -0.0235
vn -0.8787 -0.0768 -0.4712
vn -0.8748 0.0543 -0.4814
vn 0.0083 0.0004 -1.0000
vn -0.0182 -0.0160 -0.9997
vn 0.0207 -0.9996 0.0186
vn -0.0118 -0.9996 -0.0270
vn 0.0220 -0.9994 0.0258
vn 0.0443 -0.6531 -0.7560
vn -0.9999 0.0126 0.0097
vn -0.7104 0.5147 -0.4799
vn -0.6902 0.0059 -0.7236
vn -0.6768 -0.0061 -0.7361
vn -0.6505 0.4803 -0.5884
vn -0.2201 0.7929 -0.5682
vn -0.1107 0.7834 -0.6116
vn -0.0986 0.8056 -0.5842
vn -0.0004 -0.9991 0.0421
vn 0.0006 -0.9997 0.0255
vn -0.0102 -0.5999 0.8000
vn 0.1259 -0.7924 0.5968
vn 0.5453 -0.4422 0.7121
vn 0.6307 -0.4161 0.6551
vn 0.6249 -0.4169 0.6600
vn 0.1733 -0.9819 0.0769
vn 0.3731 -0.9250 -0.0714
vn 0.5089 -0.8591 0.0550
vn 0.6793 -0.3967 0.6173
vn 0.6837 -0.3975 0.6120
vn 0.5850 -0.7871 -0.1957
vn -0.0273 0.5515 0.8337
vn 0.0277 0.4920 0.8702
vn -0.0011 0.0462 0.9989
vn -0.0589 0.5670 0.8216
vn 0.0834 0.9586 0.2722
vn 0.2116 0.9774 0.0054
vn 0.0965 0.9598 0.2636
vn 0.6362 0.6752 0.3734
vn 0.8767 -0.0478 0.4787
vn 0.5650 0.6790 0.4688
vn -0.0154 -0.9999 -0.0023
vn 0.0027 0.0016 -1.0000
vn 0.9999 0.0098 0.0115
vn 0.7885 -0.6141 0.0327
vn 1.0000 0.0030 0.0038
vn 0.6584 -0.4492 -0.6040
vn 0.9999 0.0043 0.0119
vn 0.0991 0.7197 -0.6872
vn 0.2161 0.6820 -0.6987
vn 0.0730 0.7155 -0.6948
vn -0.0626 0.8102 -0.5829
vn -0.0723 0.8287 -0.5550
vn 0.9999 0.0101 -0.0051
vn -0.0304 -0.0144 0.9994
vn -0.1595 -0.7794 0.6058
vn -0.0262 0.9982 -0.0548
vn 0.2455 0.9678 0.0550
vn -0.0668 0.6952 -0.7157
vn -0.0953 0.6448 -0.7584
vt 0.813158 0.920784
vt 0.807075 0.857425
vt 0.836595 0.890358
vt 0.836595 0.730213
vt 0.663328 0.046553
vt 0.658562 0.206628
vt 0.528157 0.313921
vt 0.219011 0.793581
vt 0.180972 0.690145
vt 0.219011 0.695436
vt 0.481888 0.007230
vt 0.574828 0.004124
vt 0.364471 0.061645
vt 0.930834 0.359692
vt 0.987879 0.425415
vt 0.983309 0.504060
vt 0.987772 0.366128
vt 0.250616 0.791035
vt 0.246810 0.893274
vt 0.229916 0.846590
vt 0.809102 0.710238
vt 0.832904 0.683416
vt 0.663328 0.253327
vt 0.650762 0.313938
vt 0.584705 0.339157
vt 0.043591 0.841752
vt 0.071747 0.844891
vt 0.046088 0.901248
vt 0.508517 0.701914
vt 0.541954 0.688955
vt 0.536819 0.715093
vt 0.419164 0.908711
vt 0.449470 0.928609
vt 0.414432 0.930342
vt 0.334282 0.263918
vt 0.259008 0.328689
vt 0.328267 0.204674
vt 0.164454 0.336907
vt 0.334282 0.065968
vt 0.673942 0.226153
vt 0.840181 0.011220
vt 0.682807 0.251272
vt 0.490404 0.784533
vt 0.541954 0.803803
vt 0.474191 0.753423
vt 0.734526 0.978842
vt 0.722229 0.925199
vt 0.752933 0.930771
vt 0.755130 0.986953
vt 0.730546 0.873230
vt 0.198565 0.340036
vt 0.734275 0.323707
vt 0.786781 0.327321
vt 0.751069 0.869299
vt 0.361452 0.015097
vt 0.419170 0.007547
vt 0.326300 0.709224
vt 0.326300 0.755720
vt 0.294003 0.767809
vt 0.114978 0.845917
vt 0.079996 0.813980
vt 0.114978 0.781353
vt 0.979231 0.547592
vt 0.258865 0.690145
vt 0.259002 0.718458
vt 0.327411 0.776058
vt 0.327411 0.854792
vt 0.305312 0.793758
vt 0.521382 0.657515
vt 0.401047 0.677577
vt 0.342531 0.469303
vt 0.050525 0.703089
vt 0.071747 0.690145
vt 0.342531 0.184550
vt 0.348386 0.297455
vt 0.635461 0.893991
vt 0.598135 0.890362
vt 0.606182 0.866843
vt 0.875205 0.683416
vt 0.870982 0.782935
vt 0.844843 0.698515
vt 0.321048 0.028297
vt 0.416450 0.364281
vt 0.354377 0.370402
vt 0.204787 0.004124
vt 0.256872 0.028018
vt 0.470536 0.347406
vt 0.534331 0.369467
vt 0.227260 0.738308
vt 0.676928 0.476407
vt 0.696426 0.371035
vt 0.672593 0.427341
vt 0.204669 0.883872
vt 0.192464 0.902272
vt 0.173834 0.845583
vt 0.166832 0.879629
vt 0.941068 0.011788
vt 0.975758 0.013961
vt 0.995876 0.040964
vt 0.995876 0.150473
vt 0.035343 0.804361
vt 0.005667 0.743114
vt 0.025227 0.722306
vt 0.776593 0.959813
vt 0.797508 0.846402
vt 0.798827 0.955904
vt 0.763379 0.753313
vt 0.883453 0.859966
vt 0.905764 0.852480
vt 0.889480 0.933154
vt 0.182874 0.668972
vt 0.306959 0.671111
vt 0.234320 0.681897
vt 0.465942 0.688955
vt 0.462440 0.778237
vt 0.414432 0.797571
vt 0.896310 0.316497
vt 0.993479 0.313447
vt 0.921271 0.773561
vt 0.942940 0.791779
vt 0.928228 0.875351
vt 0.158583 0.884450
vt 0.158583 0.925664
vt 0.138105 0.923687
vt 0.353093 0.826293
vt 0.342531 0.805122
vt 0.360794 0.760653
vt 0.798827 0.683416
vt 0.314317 0.440252
vt 0.295119 0.351420
vt 0.323490 0.371639
vt 0.020555 0.532797
vt 0.247046 0.351308
vt 0.004124 0.160305
vt 0.040469 0.016558
vt 0.145112 0.355699
vt 0.589886 0.731066
vt 0.550372 0.744413
vt 0.567518 0.688955
vt 0.479718 0.680706
vt 0.683130 0.558850
vt 0.709386 0.673951
vt 0.646606 0.659200
vt 0.589886 0.856302
vt 0.550203 0.847222
vt 0.664344 0.634511
vt 0.406183 0.851594
vt 0.406183 0.875805
vt 0.378487 0.839061
vt 0.323490 0.646971
vt 0.035343 0.887648
vt 0.014899 0.887996
vt 0.337796 0.890036
vt 0.338056 0.843814
vt 0.598135 0.776728
vt 0.611489 0.688955
vt 0.635624 0.690870
vt 0.664344 0.451185
vt 0.133855 0.025580
vt 0.659320 0.379218
vt 0.636099 0.360398
vt 0.009018 0.052052
vt 0.564553 0.928398
vt 0.536133 0.919141
vt 0.533845 0.894349
vt 0.924108 0.687501
vt 0.942940 0.683416
vt 0.883453 0.840736
vt 0.906330 0.772400
vt 0.913022 0.844232
vt 0.589886 0.912754
vt 0.570737 0.864551
vt 0.589886 0.866710
vt 0.018784 0.370112
vt 0.004124 0.452239
vt 0.635624 0.786057
vt 0.605709 0.858595
vt 0.886830 0.757379
vt 0.913022 0.683416
vt 0.713980 0.763645
vt 0.687357 0.742630
vt 0.690303 0.683416
vt 0.712404 0.856623
vt 0.678530 0.820912
vt 0.166832 0.728201
vt 0.258865 0.877878
vt 0.269492 0.821572
vt 0.297063 0.824072
vt 0.678864 0.079035
vt 0.284437 0.776058
vt 0.738116 0.004124
vt 0.449470 0.857901
vt 0.314507 0.319676
vt 0.755130 0.835287
vt 0.713980 0.977391
vt 0.673475 0.954560
vt 0.710206 0.919303
vt 0.672593 0.864229
vt 0.095868 0.690145
vt 0.083717 0.860478
vt 0.344766 0.588260
vt 0.345844 0.652815
vt 0.987879 0.637511
vt 0.812184 0.672417
vt 0.928773 0.675167
vt 0.310334 0.910271
vt 0.373461 0.317848
vt 0.601575 0.922499
vt 0.853339 0.811252
vt 0.875205 0.901838
vt 0.635461 0.923742
vt 0.494463 0.812051
vt 0.503964 0.867907
vt 0.474191 0.865650
vt 0.884531 0.347406
vt 0.776333 0.352435
vt 0.250616 0.690145
vt 0.204669 0.801830
vt 0.120481 0.872120
vt 0.120481 0.906321
vt 0.086980 0.868726
vt 0.675661 0.363531
vt 0.905764 0.965546
vt 0.903726 0.916331
vt 0.079996 0.890193
vt 0.097995 0.913259
vt 0.008490 0.690145
vt 0.753079 0.745959
vt 0.732385 0.763183
vt 0.977156 0.325971
vt 0.748604 0.683416
vt 0.465942 0.840843
vt 0.406183 0.830812
vt 0.425681 0.849652
vt 0.129734 0.896137
vt 0.770050 0.684412
vt 0.145217 0.864929
vt 0.676136 0.641843
vt 0.654306 0.539854
vt 0.105334 0.659389
vt 0.004124 0.821229
vt 0.038014 0.665861
vt 0.356128 0.899091
vt 0.006584 0.620474
vt 0.158583 0.792317
vt 0.138240 0.856680
vt 0.123227 0.784111
vt 0.133696 0.690876
vt 0.158583 0.690145
vt 0.059326 0.348285
vt 0.671577 0.015802
vt 0.297063 0.891628
vt 0.052258 0.293746
vt 0.406183 0.688955
vt 0.474217 0.929827
vt 0.503964 0.930281
s 1
f 6/1/1 5/2/2 1/3/3
f 1/3/3 5/2/2 14/4/4
f 1/5/5 14/6/6 19/7/7
f 2/8/8 6/9/9 1/10/10
f 3/11/11 2/12/12 30/13/13
f 10/14/14 7/15/15 8/16/16
f 10/14/14 4/17/17 7/15/15
f 13/18/18 11/19/19 12/20/20
f 14/4/4 21/21/21 15/22/22
f 19/7/7 15/23/23 16/24/24
f 16/24/24 18/25/25 19/7/7
f 20/26/26 19/27/27 18/28/28
f 15/29/29 21/30/30 23/31/31
f 17/32/32 16/33/33 22/34/34
f 18/35/35 24/36/36 20/37/37
f 20/37/37 63/38/38 40/39/39
f 21/40/40 13/41/41 23/42/42
f 22/43/43 23/31/31 25/44/44
f 22/43/43 16/45/45 23/31/31
f 22/46/46 25/47/47 24/48/48
f 17/49/49 22/46/46 24/48/48
f 24/48/48 25/47/47 26/50/50
f 24/36/36 27/51/51 20/37/37
f 25/52/52 13/41/41 26/53/53
f 24/48/48 26/50/50 27/54/54
f 30/13/13 2/12/12 1/5/5
f 29/55/55 28/56/56 30/13/13
f 35/57/57 29/58/58 36/59/59
f 36/60/60 30/61/61 32/62/62
f 10/14/14 8/16/16 9/63/63
f 36/59/59 37/64/64 35/57/57
f 33/65/65 37/64/64 36/59/59
f 33/66/66 38/67/67 37/68/68
f 76/69/69 33/70/70 42/71/71
f 40/72/72 39/73/73 19/27/27
f 31/74/74 30/13/13 1/5/5
f 1/5/5 41/75/75 31/74/74
f 43/76/76 39/77/77 40/78/78
f 44/79/79 42/80/80 41/81/81
f 40/39/39 63/38/38 43/82/82
f 46/83/83 42/71/71 44/84/84
f 63/38/38 47/85/85 45/86/86
f 47/87/87 48/88/88 46/83/83
f 49/89/89 13/18/18 12/20/20
f 57/90/90 10/14/14 9/63/63
f 51/91/91 10/14/14 54/92/92
f 51/93/93 53/94/94 50/95/95
f 50/95/95 53/94/94 52/96/96
f 50/97/97 52/98/98 55/99/99
f 54/92/92 10/14/14 57/90/90
f 50/97/97 55/99/99 56/100/100
f 58/101/101 62/102/102 57/103/103
f 60/104/104 56/105/105 55/106/106
f 60/104/104 70/107/107 56/105/105
f 59/108/108 53/109/109 61/110/110
f 62/111/111 59/112/112 61/113/113
f 63/114/114 64/115/115 66/116/116
f 65/117/117 50/97/97 68/118/118
f 75/119/119 69/120/120 74/121/121
f 72/122/122 67/123/123 68/124/124
f 72/125/125 73/126/126 74/127/127
f 70/107/107 68/128/128 56/105/105
f 70/129/129 73/130/130 71/131/131
f 73/130/130 84/132/132 74/133/133
f 69/134/134 88/135/135 63/38/38
f 75/136/136 74/133/133 84/132/132
f 76/137/137 34/138/138 38/139/139
f 33/70/70 76/69/69 38/140/140
f 58/141/141 9/63/63 78/142/142
f 79/143/143 76/69/69 42/71/71
f 76/137/137 79/144/144 78/145/145
f 79/143/143 42/71/71 85/146/146
f 85/147/147 83/148/148 79/149/149
f 84/132/132 60/150/150 62/111/111
f 58/101/101 77/151/151 82/152/152
f 83/148/148 77/153/153 78/154/154
f 84/155/155 83/156/156 85/157/157
f 42/71/71 48/88/88 87/158/158
f 86/159/159 63/38/38 88/135/135
f 91/160/160 48/88/88 89/161/161
f 90/162/162 88/135/135 69/134/134
f 91/163/163 89/164/164 88/165/165
f 69/120/120 92/166/166 90/167/167
f 93/168/168 87/169/169 91/170/170
f 69/120/120 75/119/119 92/166/166
f 93/171/171 90/172/172 92/173/173
f 93/171/171 88/165/165 90/172/172
f 93/174/174 75/136/136 94/175/175
f 80/176/176 94/177/177 84/155/155
f 94/178/178 80/179/179 87/169/169
f 2/180/180 7/181/181 4/182/182
f 3/183/183 8/184/184 2/180/180
f 2/8/8 4/185/185 6/9/9
f 2/180/180 8/184/184 7/181/181
f 4/186/186 10/187/187 11/188/188
f 21/40/40 5/189/189 13/41/41
f 12/190/190 11/188/188 10/187/187
f 13/41/41 5/189/189 11/191/191
f 21/21/21 14/4/4 5/2/2
f 18/192/192 16/33/33 17/32/32
f 19/7/7 14/6/6 15/23/23
f 16/45/45 15/29/29 23/31/31
f 24/36/36 18/35/35 17/193/193
f 13/41/41 25/52/52 23/42/42
f 63/194/194 27/54/54 26/50/50
f 20/37/37 27/51/51 63/38/38
f 29/195/195 35/196/196 28/197/197
f 28/197/197 9/198/198 3/183/183
f 28/56/56 3/11/11 30/13/13
f 32/62/62 30/61/61 31/199/199
f 36/60/60 29/200/200 30/61/61
f 3/183/183 9/198/198 8/184/184
f 28/197/197 35/196/196 9/198/198
f 32/201/201 33/70/70 36/202/202
f 35/203/203 34/204/204 9/63/63
f 37/205/205 34/204/204 35/203/203
f 38/67/67 34/206/206 37/68/68
f 32/201/201 42/71/71 33/70/70
f 19/27/27 20/26/26 40/72/72
f 39/207/207 1/5/5 19/7/7
f 41/75/75 1/5/5 39/207/207
f 43/76/76 41/208/208 39/77/77
f 42/80/80 31/209/209 41/81/81
f 42/80/80 32/210/210 31/209/209
f 44/211/211 41/208/208 43/76/76
f 45/86/86 43/82/82 63/38/38
f 47/212/212 46/213/213 45/214/214
f 48/88/88 42/71/71 46/83/83
f 26/53/53 13/41/41 50/97/97
f 12/215/215 10/14/14 49/216/216
f 50/217/217 13/18/18 49/89/89
f 10/14/14 51/91/91 49/216/216
f 49/218/218 51/93/93 50/95/95
f 52/219/219 53/220/220 55/221/221
f 51/91/91 54/92/92 53/222/222
f 57/223/223 61/110/110 54/224/224
f 55/221/221 53/220/220 60/225/225
f 60/225/225 53/220/220 59/226/226
f 54/224/224 61/110/110 53/109/109
f 84/132/132 70/129/129 60/150/150
f 62/111/111 60/150/150 59/112/112
f 62/102/102 61/227/227 57/103/103
f 63/194/194 26/50/50 64/228/228
f 65/117/117 26/53/53 50/97/97
f 64/228/228 26/50/50 65/229/229
f 67/230/230 65/117/117 68/118/118
f 64/228/228 65/229/229 67/231/231
f 67/232/232 66/116/116 64/115/115
f 72/125/125 74/127/127 66/233/233
f 72/234/234 66/116/116 67/232/232
f 68/118/118 50/97/97 56/100/100
f 71/235/235 72/122/122 68/124/124
f 70/107/107 71/236/236 68/128/128
f 71/235/235 73/237/237 72/122/122
f 73/130/130 70/129/129 84/132/132
f 34/204/204 78/142/142 9/63/63
f 76/137/137 78/145/145 34/138/138
f 58/141/141 57/90/90 9/63/63
f 78/142/142 77/238/238 58/141/141
f 42/71/71 80/239/239 85/146/146
f 80/176/176 84/155/155 85/157/157
f 84/132/132 62/111/111 81/240/240
f 81/241/241 62/102/102 58/101/101
f 82/152/152 81/241/241 58/101/101
f 82/242/242 84/132/132 81/240/240
f 77/153/153 83/148/148 82/243/243
f 84/132/132 82/242/242 83/244/244
f 47/85/85 63/38/38 86/159/159
f 48/245/245 47/246/246 86/247/247
f 88/248/248 48/245/245 86/247/247
f 89/249/249 48/245/245 88/248/248
f 87/158/158 80/239/239 42/71/71
f 91/160/160 87/158/158 48/88/88
f 94/175/175 75/136/136 84/132/132
f 75/136/136 93/174/174 92/250/250
f 87/169/169 93/168/168 94/178/178
f 88/165/165 93/171/171 91/163/163
f 11/191/191 5/189/189 6/251/251
f 83/148/148 78/154/154 79/149/149
f 6/252/252 4/186/186 11/188/188
f 66/253/253 69/134/134 63/38/38
f 74/127/127 69/254/254 66/233/233
f 45/214/214 46/213/213 43/255/255
f 46/213/213 44/256/256 43/255/255
